<svg width="28" height="17" viewBox="0 0 28 17" fill="none" xmlns="http://www.w3.org/2000/svg">
<path d="M17.2659 1.68652H9.92188V14.6172H17.2659V1.68652Z" fill="#F26122"/>
<path d="M10.7181 8.15183C10.7041 5.65763 11.8691 3.29563 13.8761 1.74423C10.4411 -0.883989 5.50711 -0.502329 2.54211 2.62083C-0.422891 5.74413 -0.422891 10.5599 2.54211 13.6832C5.50711 16.8061 10.4411 17.1881 13.8761 14.5595C11.8691 13.0084 10.7041 10.6464 10.7181 8.15183Z" fill="#EA1D25"/>
<path d="M27.4351 8.15177C27.4321 11.2728 25.6011 14.1192 22.7161 15.4833C19.8321 16.8474 16.4001 16.4906 13.8761 14.5642C17.5111 11.7793 18.1401 6.65627 15.2831 3.11627C14.8731 2.60357 14.4011 2.14149 13.8761 1.74004C16.4001 -0.186617 19.8321 -0.543566 22.7161 0.820664C25.6011 2.1849 27.4321 5.03127 27.4351 8.15177Z" fill="#F69E1E"/>
</svg>
