<svg width="71" height="17" viewBox="0 0 71 17" fill="none" xmlns="http://www.w3.org/2000/svg">
<g clip-path="url(#clip0_310_18382)">
<path fill-rule="evenodd" clip-rule="evenodd" d="M6.12295 4.00146H10.9179C13.4923 4.00146 14.4614 5.30478 14.3117 7.21952C14.0641 10.3806 12.1531 12.1295 9.61826 12.1295H8.33846C7.99066 12.1295 7.75673 12.3597 7.66267 12.9836L7.11931 16.6101C7.08342 16.8452 6.95965 16.9814 6.77399 16.9999H3.76139C3.47795 16.9999 3.3777 16.7833 3.45196 16.3142L5.28873 4.6884C5.36052 4.22302 5.61549 4.00146 6.12295 4.00146Z" fill="#009EE3"/>
<path fill-rule="evenodd" clip-rule="evenodd" d="M26.9401 3.78613C28.5578 3.78613 30.0504 4.66367 29.8462 6.85071C29.5987 9.44991 28.2063 10.8881 26.0093 10.8943H24.0896C23.8136 10.8943 23.6799 11.1196 23.6081 11.5813L23.2368 13.9416C23.1811 14.298 22.9979 14.4738 22.7281 14.4738H20.9421C20.6574 14.4738 20.5584 14.2918 20.6215 13.8846L22.0957 4.42479C22.1687 3.95941 22.3432 3.78613 22.6613 3.78613H26.9364H26.9401ZM24.0314 8.85086H25.4858C26.3955 8.8162 26.9995 8.18621 27.0601 7.04998C27.0973 6.3482 26.6232 5.84569 25.8694 5.8494L24.5005 5.85559L24.0314 8.85086ZM34.7018 13.7497C34.8652 13.6012 35.031 13.5245 35.0075 13.7076L34.9493 14.1458C34.9196 14.3748 35.01 14.4961 35.2229 14.4961H36.8096C37.077 14.4961 37.2069 14.3884 37.2725 13.975L38.2503 7.83841C38.2998 7.53022 38.2243 7.37922 37.9904 7.37922H36.2452C36.088 7.37922 36.0113 7.46709 35.9704 7.70721L35.9061 8.08471C35.8727 8.28151 35.7823 8.31617 35.6981 8.11813C35.4023 7.41759 34.6473 7.10321 33.594 7.12796C31.1471 7.17871 29.4972 9.03652 29.3202 11.4179C29.184 13.2596 30.5034 14.7065 32.2437 14.7065C33.5061 14.7065 34.0705 14.3352 34.7067 13.7534L34.7018 13.7497ZM33.3725 12.8054C32.3192 12.8054 31.5852 11.9649 31.7375 10.9352C31.8897 9.90539 32.8749 9.06498 33.9282 9.06498C34.9815 9.06498 35.7155 9.90539 35.5632 10.9352C35.411 11.9649 34.427 12.8054 33.3725 12.8054ZM41.3557 7.35941H39.7467C39.415 7.35941 39.2801 7.60695 39.3853 7.91143L41.383 13.7609L39.4237 16.5445C39.259 16.7772 39.3865 16.9888 39.618 16.9888H41.4263C41.5317 17.001 41.6383 16.9826 41.7336 16.9359C41.8288 16.8892 41.9086 16.816 41.9635 16.7252L48.1075 7.91267C48.2968 7.64161 48.2077 7.35694 47.8971 7.35694H46.1853C45.892 7.35694 45.7744 7.47328 45.6061 7.71711L43.044 11.4303L41.8991 7.70845C41.8323 7.48318 41.6652 7.35941 41.357 7.35941H41.3557Z" fill="#113984"/>
<path fill-rule="evenodd" clip-rule="evenodd" d="M54.499 3.78617C56.1167 3.78617 57.6094 4.66371 57.4052 6.85075C57.1576 9.44995 55.7652 10.8882 53.5683 10.8944H51.6498C51.3738 10.8944 51.2401 11.1196 51.1683 11.5813L50.797 13.9416C50.7413 14.2981 50.5581 14.4738 50.2883 14.4738H48.5023C48.2176 14.4738 48.1186 14.2919 48.1817 13.8847L49.6583 4.42235C49.7313 3.95697 49.9059 3.78369 50.2239 3.78369H54.499V3.78617ZM51.5904 8.85089H53.0447C53.9544 8.81624 54.5584 8.18624 54.6191 7.05002C54.6562 6.34824 54.1822 5.84572 53.4284 5.84944L52.0595 5.85563L51.5904 8.85089ZM62.2607 13.7498C62.4241 13.6012 62.59 13.5245 62.5664 13.7077L62.5083 14.1458C62.4786 14.3748 62.5689 14.4961 62.7818 14.4961H64.3686C64.6359 14.4961 64.7659 14.3884 64.8315 13.975L65.8093 7.83844C65.8588 7.53025 65.7833 7.37925 65.5493 7.37925H63.8066C63.6494 7.37925 63.5727 7.46713 63.5319 7.70725L63.4675 8.08475C63.4341 8.28154 63.3437 8.3162 63.2596 8.11817C62.9638 7.41762 62.2087 7.10324 61.1554 7.128C58.7085 7.17874 57.0586 9.03655 56.8816 11.4179C56.7455 13.2596 58.0649 14.7065 59.8051 14.7065C61.0676 14.7065 61.632 14.3352 62.2682 13.7535L62.2607 13.7498ZM60.9327 12.8054C59.8794 12.8054 59.1454 11.965 59.2976 10.9352C59.4499 9.90543 60.4351 9.06502 61.4884 9.06502C62.5417 9.06502 63.2757 9.90543 63.1234 10.9352C62.9712 11.965 61.986 12.8054 60.9327 12.8054ZM68.2513 14.506H66.4195C66.3876 14.5074 66.3558 14.5018 66.3264 14.4895C66.2969 14.4772 66.2706 14.4586 66.2492 14.435C66.2278 14.4113 66.2119 14.3832 66.2026 14.3527C66.1933 14.3222 66.1908 14.29 66.1954 14.2585L67.8045 4.06465C67.8198 3.99508 67.8583 3.93276 67.9135 3.88781C67.9688 3.84287 68.0377 3.81795 68.1089 3.81711H69.9408C69.9726 3.81569 70.0044 3.82131 70.0338 3.8336C70.0633 3.84588 70.0896 3.86451 70.111 3.88815C70.1324 3.9118 70.1483 3.93988 70.1576 3.97039C70.1669 4.00091 70.1694 4.03309 70.1648 4.06465L68.5557 14.2585C68.5409 14.3285 68.5026 14.3914 68.4473 14.4368C68.392 14.4822 68.3229 14.5075 68.2513 14.5085V14.506Z" fill="#009EE3"/>
<path fill-rule="evenodd" clip-rule="evenodd" d="M3.12421 0H7.92405C9.27564 0 10.8797 0.04332 11.9516 0.990171C12.6682 1.62264 13.0445 2.6289 12.9578 3.71314C12.6633 7.37801 10.4713 9.43138 7.53046 9.43138H5.16396C4.76046 9.43138 4.49435 9.69872 4.38048 10.4215L3.71954 14.6298C3.67622 14.9021 3.55864 15.063 3.34823 15.0828H0.386386C0.0583918 15.0828 -0.0579543 14.8352 0.0274478 14.2882L2.15631 0.799562C2.24172 0.257443 2.54001 0 3.12421 0Z" fill="#113984"/>
<path fill-rule="evenodd" clip-rule="evenodd" d="M4.44958 9.9945L5.28752 4.68842C5.36054 4.22304 5.61551 4.00024 6.12298 4.00024H10.9179C11.7113 4.00024 12.3536 4.12402 12.8561 4.35299C12.3747 7.61561 10.2644 9.42762 7.50179 9.42762H5.13899C4.82214 9.42886 4.58945 9.58729 4.44958 9.9945Z" fill="#172C70"/>
</g>
<defs>
<clipPath id="clip0_310_18382">
<rect width="70.1697" height="17" fill="white"/>
</clipPath>
</defs>
</svg>
