<svg width="50" height="16" viewBox="0 0 50 16" fill="none" xmlns="http://www.w3.org/2000/svg">
<path fill-rule="evenodd" clip-rule="evenodd" d="M35.2948 10.6485C35.3048 8.12762 33.2208 7.03922 31.6028 6.19352C30.5788 5.65872 29.7418 5.22132 29.7418 4.58062C29.7418 4.03452 30.2718 3.45632 31.3998 3.30702C32.7408 3.17472 34.0938 3.40902 35.3108 3.98542L36.0078 0.678411C34.8208 0.234331 33.5628 0.00473 32.2948 0C28.3828 0 25.6638 2.08342 25.6638 5.05972C25.6638 7.25932 27.6368 8.48292 29.1288 9.21042C30.6208 9.93802 31.2008 10.4501 31.1838 11.1115C31.1838 12.1367 29.9578 12.5996 28.8138 12.6166C27.4028 12.6346 26.0108 12.2935 24.7688 11.6245L24.0558 14.9315C25.4608 15.4786 26.9578 15.7536 28.4658 15.7413C32.6258 15.7413 35.3618 13.6909 35.3778 10.5162L35.2948 10.6485ZM24.5368 0.265511L21.2218 15.5599H17.2438L20.5588 0.265511H24.5368ZM41.2128 10.1855L43.3008 4.44842L44.5118 10.1855H41.2128ZM49.3188 15.6099H45.6388L45.1578 13.3281H40.1688L39.3558 15.6099H35.1788L41.1298 1.43902C41.4038 0.76439 42.0568 0.32125 42.7878 0.31464H46.1028L49.3188 15.6099ZM12.5188 15.5098L18.9508 0.21543H14.6408L10.5138 10.6154L8.8558 1.76972C8.7088 0.87021 7.92881 0.21165 7.01581 0.21543H0.269806L0.1698 0.6614C1.5228 0.92596 2.83779 1.35871 4.08179 1.95112C4.61179 2.19962 4.97079 2.70892 5.02679 3.29092L8.19281 15.5098H12.5188Z" fill="#111928"/>
</svg>
